HIERARCHY
ROOT Hips
{
	OFFSET	0.000000	0.000000	0.000000
	CHANNELS 6 Xposition Yposition Zposition Zrotation Xrotation Yrotation
	JOINT LeftUpLeg
	{
		OFFSET	12.830505	-7.049846	-1.643436
		CHANNELS 3 Zrotation Xrotation Yrotation
		JOINT LeftLeg
		{
			OFFSET	0.620834	-39.957500	-1.919341
			CHANNELS 3 Zrotation Xrotation Yrotation
			JOINT LeftFoot
			{
				OFFSET	-0.413890	-44.704761	-3.870325
				CHANNELS 3 Zrotation Xrotation Yrotation
				JOINT LeftFootHeel
				{
					OFFSET	0.164738	-8.918193	-6.555130
					CHANNELS 3 Zrotation Xrotation Yrotation
					End Site
					{
						OFFSET	-0.604053	0.000000	21.044330
					}
				}
			}
		}
	}
	JOINT RightUpLeg
	{
		OFFSET	-12.830505	-7.049846	-1.643436
		CHANNELS 3 Zrotation Xrotation Yrotation
		JOINT RightLeg
		{
			OFFSET	-0.620834	-39.957500	-1.919341
			CHANNELS 3 Zrotation Xrotation Yrotation
			JOINT RightFoot
			{
				OFFSET	0.413890	-44.704761	-3.870325
				CHANNELS 3 Zrotation Xrotation Yrotation
				JOINT RightFootHeel
				{
					OFFSET	-0.164738	-8.918193	-6.555130
					CHANNELS 3 Zrotation Xrotation Yrotation
					End Site
					{
						OFFSET	0.604053	0.000000	21.044330
					}
				}
			}
		}
	}
	JOINT Spine
	{
		OFFSET	0.000000	12.498170	1.820647
		CHANNELS 3 Zrotation Xrotation Yrotation
		JOINT Spine1
		{
			OFFSET	0.000000	7.620000	0.000000
			CHANNELS 3 Zrotation Xrotation Yrotation
			JOINT LeftShoulder
			{
				OFFSET	9.167800	29.136339	-5.551221
				CHANNELS 3 Zrotation Xrotation Yrotation
				JOINT LeftArm
				{
					OFFSET	12.133453	-3.880866	1.461963
					CHANNELS 3 Zrotation Xrotation Yrotation
					JOINT LeftForeArm
					{
						OFFSET	2.507115	-31.664908	-1.069404
						CHANNELS 3 Zrotation Xrotation Yrotation
						JOINT LeftHand
						{
							OFFSET	4.116172	-24.512624	5.009439
							CHANNELS 3 Zrotation Xrotation Yrotation
							End Site
							{
								OFFSET	-0.213136	-10.931856	2.182134
							}
						}
					}
				}
			}
			JOINT RightShoulder
			{
				OFFSET	-9.167800	29.136339	-5.551221
				CHANNELS 3 Zrotation Xrotation Yrotation
				JOINT RightArm
				{
					OFFSET	-12.133453	-3.880866	1.461963
					CHANNELS 3 Zrotation Xrotation Yrotation
					JOINT RightForeArm
					{
						OFFSET	-2.507115	-31.664908	-1.069404
						CHANNELS 3 Zrotation Xrotation Yrotation
						JOINT RightHand
						{
							OFFSET	-4.116172	-24.512624	5.009439
							CHANNELS 3 Zrotation Xrotation Yrotation
							End Site
							{
								OFFSET	0.213136	-10.931856	2.182134
							}
						}
					}
				}
			}
			JOINT Neck
			{
				OFFSET	0.000000	32.926272	-3.635654
				CHANNELS 3 Zrotation Xrotation Yrotation
				JOINT Head
				{
					OFFSET	0.000000	12.481178	4.646143
					CHANNELS 3 Zrotation Xrotation Yrotation
					End Site
					{
						OFFSET	0.000000	17.715204	-2.222063
					}
				}
			}
		}
	}
}
MOTION
Frames:     11
Frame Time: 0.016667
0.000000	103.173565	0.000000	0.000000	0.000000	0.000000	-0.069655	-0.145554	0.110297	0.123220	0.183379	-0.053056	-0.053249	-0.038007	-0.057583	0.	0.	0.	-0.041643	-0.110823	-0.015863	0.025154	0.131557	-0.069074	0.016485	-0.020701	0.084891	0.	0.	0.	0.000000	0.000000	0.000000	-0.081608	0.046846	-0.133629	0.081432	0.000536	0.432467	0.280340	0.494409	-0.615419	-0.506877	-0.179796	0.765713	-0.440562	-1.838604	0.311518	0.149951	0.359743	-0.369076	-0.069476	-0.162080	0.457361	-0.180152	0.658448	1.667408	-1.930496	0.152918	0.098472	0.505627	0.601579	0.161373	-0.522263	0.289734	-0.465938	
0.000000	103.173565	0.000000	0.000000	0.000000	0.000000	-0.069655	-0.145554	0.110297	0.123220	0.183379	-0.053056	-0.053249	-0.038007	-0.057583	0.	0.	0.	-0.041643	-0.110823	-0.015863	0.025154	0.131557	-0.069074	0.016485	-0.020701	0.084891	0.	0.	0.	0.000000	0.000000	0.000000	-0.081608	0.046846	-0.133629	0.081432	0.000536	0.432467	0.282598	0.495329	-0.631977	-0.508610	-0.178369	0.765485	-0.440521	-1.841245	0.328268	0.140677	0.363811	-0.378464	-0.060148	-0.166099	0.466802	-0.180152	0.658448	1.667408	-1.938293	0.141071	0.095095	0.505627	0.601579	0.161373	-0.518302	0.304872	-0.468604	
0.000000	103.173565	0.000000	0.000000	0.000000	0.000000	-0.069655	-0.145554	0.110297	0.123220	0.183379	-0.053056	-0.053249	-0.038007	-0.057583	0.	0.	0.	-0.041643	-0.110823	-0.015863	0.025154	0.131557	-0.069074	0.016485	-0.020701	0.084891	0.	0.	0.	0.000000	0.000000	0.000000	-0.081608	0.046846	-0.133629	0.081432	0.000536	0.432467	0.283121	0.495550	-0.635829	-0.508664	-0.176154	0.752866	-0.483577	-1.836268	0.333875	0.131171	0.367988	-0.388089	-0.050586	-0.170219	0.476485	-0.180152	0.658448	1.667408	-1.938293	0.141071	0.095095	0.505627	0.601579	0.161373	-0.514588	0.319035	-0.471100	
0.000000	103.173565	0.000000	0.000000	0.000000	0.000000	-0.069655	-0.145554	0.110297	0.123220	0.183379	-0.053056	-0.053249	-0.038007	-0.057583	0.	0.	0.	-0.041643	-0.110823	-0.015863	0.025154	0.131557	-0.069074	0.016485	-0.020701	0.084891	0.	0.	0.	0.000000	0.000000	0.000000	-0.081608	0.046846	-0.133629	0.081432	0.000536	0.432467	0.283121	0.495550	-0.635829	-0.508365	-0.174540	0.742134	-0.555027	-1.832672	0.330819	0.119339	0.373188	-0.400079	-0.038684	-0.175349	0.488547	-0.181276	0.645134	1.684944	-1.977445	0.176405	0.093789	0.498480	0.617484	0.102386	-0.502680	0.322190	-0.415629	
0.000000	103.173565	0.000000	0.000000	0.000000	0.000000	-0.069655	-0.145554	0.110297	0.123220	0.183379	-0.053056	-0.053249	-0.038007	-0.057583	0.	0.	0.	-0.041643	-0.110823	-0.015863	0.025154	0.131557	-0.069074	0.016485	-0.020701	0.084891	0.	0.	0.	0.000000	0.000000	0.000000	-0.081608	0.046846	-0.133629	0.081432	0.000536	0.432467	0.283121	0.495550	-0.635829	-0.508365	-0.174540	0.742134	-0.555027	-1.832672	0.330819	0.119339	0.373188	-0.400079	-0.038684	-0.175349	0.488547	-0.181276	0.645134	1.684944	-1.977445	0.176405	0.093789	0.498480	0.617484	0.102386	-0.502680	0.322190	-0.415629	
0.000000	103.173565	0.000000	0.000000	0.000000	0.000000	-0.069655	-0.145554	0.110297	0.123220	0.183379	-0.053056	-0.053249	-0.038007	-0.057583	0.	0.	0.	-0.041643	-0.110823	-0.015863	0.025154	0.131557	-0.069074	0.016485	-0.020701	0.084891	0.	0.	0.	0.000000	0.000000	0.000000	-0.081608	0.046846	-0.133629	0.081432	0.000536	0.432467	0.283121	0.495550	-0.635829	-0.508700	-0.176407	0.755610	-0.564682	-1.825261	0.379733	0.119339	0.373188	-0.400079	-0.038684	-0.175349	0.488547	-0.186714	0.565949	1.711551	-2.020731	0.201631	0.072512	0.542569	0.641487	0.044980	-0.547897	0.320346	-0.369952	
0.000000	103.173565	0.000000	0.000000	0.000000	0.000000	-0.069655	-0.145554	0.110297	0.123220	0.183379	-0.053056	-0.053249	-0.038007	-0.057583	0.	0.	0.	-0.041643	-0.110823	-0.015863	0.025154	0.131557	-0.069074	0.016485	-0.020701	0.084891	0.	0.	0.	0.000000	0.000000	0.000000	-0.081608	0.046846	-0.133629	0.081432	0.000536	0.432467	0.283121	0.495550	-0.635829	-0.509873	-0.182879	0.798776	-0.567030	-1.817621	0.351471	0.119339	0.373188	-0.400079	-0.038684	-0.175349	0.488547	-0.186714	0.565949	1.711551	-2.024561	0.195810	0.070843	0.537044	0.644640	0.030082	-0.542458	0.317049	-0.355024	
0.000000	103.173565	0.000000	0.000000	0.000000	0.000000	-0.069655	-0.145554	0.110297	0.123220	0.183379	-0.053056	-0.053249	-0.038007	-0.057583	0.	0.	0.	-0.041643	-0.110823	-0.015863	0.025154	0.131557	-0.069074	0.016485	-0.020701	0.084891	0.	0.	0.	0.000000	0.000000	0.000000	-0.081608	0.046846	-0.133629	0.081432	0.000536	0.432467	0.283121	0.495550	-0.635829	-0.510353	-0.185525	0.816410	-0.568344	-1.814379	0.342290	0.119339	0.373188	-0.400079	-0.038684	-0.175349	0.488547	-0.186714	0.565949	1.711551	-2.024561	0.195810	0.070843	0.534457	0.646108	0.023146	-0.539910	0.315513	-0.348073	
0.000000	103.173565	0.000000	0.000000	0.000000	0.000000	-0.069655	-0.145554	0.110297	0.123220	0.183379	-0.053056	-0.053249	-0.038007	-0.057583	0.	0.	0.	-0.041643	-0.110823	-0.015863	0.025154	0.131557	-0.069074	0.016485	-0.020701	0.084891	0.	0.	0.	0.000000	0.000000	0.000000	-0.081608	0.046846	-0.133629	0.074495	0.002727	0.439841	0.290105	0.493271	-0.643192	-0.510552	-0.186612	0.823653	-0.583972	-1.813934	0.340818	0.119339	0.373188	-0.400079	-0.038684	-0.175349	0.488547	-0.186714	0.565949	1.711551	-2.024561	0.195810	0.070843	0.529599	0.648880	0.010051	-0.535123	0.312617	-0.334951	
0.000000	103.173565	0.000000	0.000000	0.000000	0.000000	-0.069655	-0.145554	0.110297	0.123220	0.183379	-0.053056	-0.053249	-0.038007	-0.057583	0.	0.	0.	-0.041643	-0.110823	-0.015863	0.025154	0.131557	-0.069074	0.016485	-0.020701	0.084891	0.	0.	0.	0.000000	0.000000	0.000000	-0.081608	0.046846	-0.133629	0.065028	0.005710	0.449909	0.299634	0.490162	-0.653244	-0.510552	-0.186612	0.823653	-0.605149	-1.815616	0.336910	0.119339	0.373188	-0.400079	-0.038684	-0.175349	0.488547	-0.186714	0.565949	1.711551	-2.024561	0.195810	0.070843	0.526241	0.650796	0.000995	-0.531817	0.310614	-0.325873	
0.000000	103.173565	0.000000	0.000000	0.000000	0.000000	-0.069655	-0.145554	0.110297	0.123220	0.183379	-0.053056	-0.053249	-0.038007	-0.057583	0.	0.	0.	-0.041643	-0.110823	-0.015863	0.025154	0.131557	-0.069074	0.016485	-0.020701	0.084891	0.	0.	0.	0.000000	0.000000	0.000000	-0.081608	0.046846	-0.133629	0.054974	0.008879	0.460608	0.309754	0.486856	-0.663925	-0.510552	-0.186612	0.823653	-0.625861	-1.817255	0.333093	0.119339	0.373188	-0.400079	-0.038684	-0.175349	0.488547	-0.186714	0.565949	1.711551	-2.024561	0.195810	0.070843	0.526241	0.650796	0.000995	-0.531817	0.310614	-0.325873	
